# xmcd
#
# Track frame offsets:
#	150
#	20772
#	37441
#	52026
#	67020
#	86473
#	103034
#	113888
#	124913
#	138812
#	154875
#	166472
#	182499
#	196240
#	223622
#	233590
#	250011
#	264725
#
# Disc length: 3749 seconds
#
# Revision: 0
# Processed by: cddbd v1.5.1PL0 Copyright (c) Steve Scherf et al.
# Submitted via: audiograbber 1.83.01
#
DISCID=060ea312
DTITLE=Alfons Buschhüter - Traummelodien
DYEAR=1900
DGENRE=
TTITLE0=Gedanken
TTITLE1=Casablanca
TTITLE2=Weite Prärie
TTITLE3=Aber Dich gibt es nur einmal für mich
TTITLE4=Erinnerungen an new Orleans
TTITLE5=Ballade an Elke
TTITLE6=Homeland
TTITLE7=Saxophon-Sound
TTITLE8=Danny Boy
TTITLE9=Amazing Grace
TTITLE10=Please Release me
TTITLE11=Dream Saxophon
TTITLE12=Lied der Wolga
TTITLE13=Winnetou-Melodie
TTITLE14=Erinnerungen an Südafrika
TTITLE15=Over the Rainbox
TTITLE16=Sommerparty
TTITLE17=Heiße Nacht
EXTD=
EXTT0=
EXTT1=
EXTT2=
EXTT3=
EXTT4=
EXTT5=
EXTT6=
EXTT7=
EXTT8=
EXTT9=
EXTT10=
EXTT11=
EXTT12=
EXTT13=
EXTT14=
EXTT15=
EXTT16=
EXTT17=
PLAYORDER=
